<?xml version="1.0" encoding="UTF-8"?>
<svg id="Camada_1" xmlns="http://www.w3.org/2000/svg" version="1.1" xmlns:xlink="http://www.w3.org/1999/xlink" viewBox="0 0 88 88">
  <!-- Generator: Adobe Illustrator 29.2.1, SVG Export Plug-In . SVG Version: 2.1.0 Build 116)  -->
  <defs>
    <style>
      .st0 {
        fill: #23235e;
      }

      .st1 {
        fill: #f7bc8f;
      }
    </style>
  </defs>
  <g id="change">
    <g>
      <circle class="st1" cx="44" cy="44" r="41.7"/>
      <path class="st0" d="M44,4.3c21.9,0,39.7,17.8,39.7,39.7s-17.8,39.7-39.7,39.7S4.3,65.9,4.3,44,22.1,4.3,44,4.3M44,.3C19.9.3.3,19.9.3,44s19.6,43.7,43.7,43.7,43.7-19.6,43.7-43.7S68.1.3,44,.3h0Z"/>
    </g>
    <g>
      <path class="st0" d="M21.5,41.8c1.6.3,3.2-.7,3.6-2.4,1.8-9,9.8-15.5,18.9-15.5s14.2,4.4,17.4,10.9c-1.3-.5-2.8,0-3.5,1.2-.9,1.4-.5,3.3.9,4.2l6.1,4c.5.3,1.1.5,1.6.5s.4,0,.6,0c.8-.2,1.5-.6,1.9-1.3l3.9-6c.9-1.4.5-3.3-.9-4.2-1.4-.9-3.3-.5-4.2.9v.2c-1.7-4.1-4.3-7.8-7.7-10.6-4.5-3.7-10.3-5.8-16.1-5.8s-11.6,2.1-16.1,5.8c-4.5,3.7-7.6,8.8-8.7,14.5-.3,1.6.7,3.2,2.4,3.6Z"/>
      <path class="st0" d="M16,54.7c.5.3,1.1.5,1.6.5,1,0,2-.5,2.5-1.4v-.2c1.7,4.1,4.3,7.8,7.7,10.6,4.5,3.7,10.3,5.8,16.1,5.8s11.6-2.1,16.1-5.8c4.5-3.7,7.6-8.8,8.7-14.5.3-1.6-.7-3.2-2.4-3.6-1.6-.3-3.2.7-3.6,2.4-1.8,9-9.8,15.5-18.9,15.5s-14.2-4.4-17.4-10.9c1.3.5,2.8,0,3.5-1.2.9-1.4.5-3.3-.9-4.2l-6.1-4c-.7-.4-1.5-.6-2.3-.4-.8.2-1.5.6-1.9,1.3l-3.9,6c-.9,1.4-.5,3.3.9,4.2Z"/>
    </g>
  </g>
</svg>