<?xml version="1.0" encoding="utf-8"?>
<!-- Generator: Adobe Illustrator 28.2.0, SVG Export Plug-In . SVG Version: 6.00 Build 0)  -->
<svg version="1.1" id="Camada_1" xmlns="http://www.w3.org/2000/svg" xmlns:xlink="http://www.w3.org/1999/xlink" x="0px" y="0px"
	 viewBox="0 0 88 88" style="enable-background:new 0 0 88 88;" xml:space="preserve">
<style type="text/css">
	.st0{fill:#F7BC8F;}
	.st1{fill:#23235E;}
	.st2{fill:#FFF1B6;}
	.st3{fill:none;stroke:#23235E;stroke-width:3.1758;stroke-linecap:round;stroke-miterlimit:10;}
</style>
<g id="sound_00000162344338596053458160000012980034590834772126_">
	<g>
		<ellipse transform="matrix(0.7071 -0.7071 0.7071 0.7071 -18.2253 44.0001)" class="st0" cx="44" cy="44" rx="41.7" ry="41.7"/>
		<g>
			<path class="st1" d="M44,4.3c21.9,0,39.7,17.8,39.7,39.7S65.9,83.7,44,83.7S4.3,65.9,4.3,44S22.1,4.3,44,4.3 M44,0.3
				C19.9,0.3,0.3,19.9,0.3,44S19.9,87.7,44,87.7S87.7,68.1,87.7,44S68.1,0.3,44,0.3L44,0.3z"/>
		</g>
	</g>
	<g>
		<g>
			<g>
				<rect x="17.8" y="35.5" class="st2" width="8.6" height="17"/>
				<path class="st1" d="M25.2,36.8v14.4h-6.1V36.8H25.2 M27.7,34.2H16.6v19.5h11.2V34.2L27.7,34.2z"/>
			</g>
			<g>
				<polygon class="st2" points="26.2,56.9 26.2,30.8 48.7,23.3 48.7,64.7 				"/>
				<path class="st1" d="M47.5,25.1v37.8l-20-6.9V31.7L47.5,25.1 M50,21.5l-25.1,8.4v27.9L50,66.5V21.5L50,21.5z"/>
			</g>
		</g>
		<line class="st3" x1="55.8" y1="51.1" x2="71.2" y2="56.3"/>
		<line class="st3" x1="55.6" y1="44" x2="71.4" y2="44"/>
		<line class="st3" x1="55.8" y1="36.9" x2="71.2" y2="31.7"/>
	</g>
</g>
</svg>
